<svg width="25" height="44" viewBox="0 0 25 44" fill="none" xmlns="http://www.w3.org/2000/svg">
<path d="M11.7907 43.2767C12.4556 44.2136 13.1508 43.6671 13.4153 43.2767C16.9667 32.5468 24.4474 32.6223 24.4474 19.2478C24.4474 12.967 21.97 8.63012 19.6502 6.17941C19.4926 6.01289 19.2123 6.19092 19.261 6.41497C19.779 8.7968 18.3882 10.0388 17.8357 10.4448C16.1291 3.93136 14.581 1.05586 12.8302 0.319621C12.6814 0.257069 12.5353 0.39221 12.5548 0.552402C13.1067 5.09176 6.73752 10.7422 4.65002 13.0139C4.8631 11.6407 4.34828 10.0852 3.8791 9.08813C3.78559 8.88941 3.49438 8.95938 3.46566 9.17711C3.02607 12.5099 -0.108963 14.7662 0.00292272 19.2478C0.330223 32.3579 7.86142 31.5267 11.7907 43.2767Z" fill="url(#paint0_linear_47_1585)"/>
<circle cx="12.6876" cy="21.968" r="5.66718" fill="white"/>
<defs>
<linearGradient id="paint0_linear_47_1585" x1="12.2245" y1="0.281617" x2="12.2245" y2="43.794" gradientUnits="userSpaceOnUse">
<stop offset="0.09375" stop-color="#E83900"/>
<stop offset="0.515625" stop-color="#FF7623"/>
<stop offset="0.927083" stop-color="#FEB503"/>
</linearGradient>
</defs>
</svg>
